<svg xmlns="http://www.w3.org/2000/svg" viewBox="0 0 128 128">
  <defs>
    <linearGradient id="bg" x1="0" y1="0" x2="1" y2="1">
      <stop offset="0" stop-color="#d4b391"/>
      <stop offset="1" stop-color="#a47b58"/>
    </linearGradient>
  </defs>
  <rect x="4" y="4" width="120" height="120" rx="28" fill="url(#bg)"/>
  <!-- back tab card -->
  <path d="M34 28h20a6 6 0 0 1 5.6 3.8L61.5 36H96a6 6 0 0 1 6 6v6H34z" fill="#fffaf3" fill-opacity=".55"/>
  <!-- front tab card -->
  <path d="M20 48a6 6 0 0 1 6-6h22a6 6 0 0 1 5.6 3.8L55.5 50H102a6 6 0 0 1 6 6v42a6 6 0 0 1-6 6H26a6 6 0 0 1-6-6z" fill="#fffaf3"/>
  <!-- restore (counter-clockwise) arrow -->
  <g transform="translate(64 78)" fill="none" stroke="#7a5236" stroke-width="7.5" stroke-linecap="round" stroke-linejoin="round">
    <path d="M-15.5 4A16 16 0 1 0 -11.3 -11.3L-17 -5.6"/>
    <path d="M-17 -16V-5.6H-6.6"/>
  </g>
</svg>
